# xmcd
#
# Track frame offsets:
#	150
#	18249
#	33179
#	45999
#	67383
#	82074
#	98046
#	112652
#	123089
#	138913
#
# Disc length: 2052 seconds
#
# Revision: 1
# Processed by: cddbd v1.5.2PL0 Copyright (c) Steve Scherf et al.
# Submitted via: audiograbber 1.83.01
#
DISCID=7508020a
DTITLE=HELEN DARLING - COMP CD #2
DYEAR=1900
DGENRE=Country
TTITLE0=ROAD I'M TRAVELING ON
TTITLE1=YOU'VE GOT TO LEARN
TTITLE2=THIS TIME
TTITLE3=IF I BELIEVE
TTITLE4=YOU CARRY ME
TTITLE5=READY, SET, DON'T
TTITLE6=REASON TO STAY
TTITLE7=HALO OF A WORKING MAN
TTITLE8=PASSION AND PAIN
TTITLE9=CAN YOU FIND IT IN YOUR HEART
EXTD=
EXTT0=
EXTT1=
EXTT2=
EXTT3=
EXTT4=
EXTT5=
EXTT6=
EXTT7=
EXTT8=
EXTT9=
PLAYORDER=
